<?xml version="1.0" standalone="no"?>
<!DOCTYPE svg PUBLIC "-//W3C//DTD SVG 20010904//EN"
 "http://www.w3.org/TR/2001/REC-SVG-20010904/DTD/svg10.dtd">
<svg version="1.0" xmlns="http://www.w3.org/2000/svg"
 width="958.000000pt" height="958.000000pt" viewBox="0 0 958.000000 958.000000"
 preserveAspectRatio="xMidYMid meet">
<metadata>
Created by potrace 1.11, written by Peter Selinger 2001-2013
</metadata>
<g transform="translate(0.000000,958.000000) scale(0.100000,-0.100000)"
fill="#000000" stroke="none">
<path d="M4575 8939 c-82 -28 -159 -54 -170 -59 -11 -5 -36 -13 -55 -19 -19
-5 -48 -14 -65 -21 -35 -13 -753 -250 -775 -255 -8 -2 -62 -20 -120 -40 -58
-20 -116 -38 -129 -41 -13 -3 -36 -11 -52 -19 -15 -8 -35 -15 -43 -15 -8 0
-27 -5 -43 -12 -15 -6 -32 -12 -38 -14 -5 -1 -59 -19 -120 -39 -60 -20 -114
-38 -120 -39 -5 -2 -17 -6 -25 -9 -8 -4 -64 -22 -125 -42 -60 -19 -117 -38
-125 -41 -8 -3 -15 -5 -15 -4 0 0 -54 -18 -120 -40 -66 -23 -127 -43 -135 -45
-8 -2 -260 -85 -560 -185 -300 -100 -549 -182 -555 -184 -19 -4 -640 -208
-660 -216 -11 -5 -133 -46 -271 -91 l-252 -82 0 -2733 1 -2734 71 -21 c39 -11
100 -29 136 -40 36 -10 74 -21 85 -24 21 -4 73 -19 190 -54 39 -12 79 -23 90
-26 21 -4 163 -45 225 -64 19 -6 48 -14 64 -17 16 -2 34 -8 40 -12 6 -3 16 -7
21 -8 14 -2 102 -27 210 -59 50 -14 113 -32 140 -40 28 -7 115 -32 195 -55 80
-23 152 -43 160 -45 8 -2 15 -4 15 -5 0 -1 7 -3 15 -5 8 -2 40 -11 70 -20 30
-9 73 -21 95 -26 22 -6 60 -17 85 -25 25 -9 52 -17 60 -19 25 -6 121 -33 195
-55 39 -12 77 -23 86 -25 8 -2 159 -44 335 -95 325 -93 360 -103 474 -134 36
-10 72 -20 80 -23 18 -7 28 -10 55 -17 11 -3 34 -9 52 -15 17 -5 34 -7 37 -3
3 3 6 1 6 -5 0 -5 6 -10 13 -10 12 -1 367 -99 397 -110 17 -7 27 -10 55 -17
17 -4 94 -26 320 -92 28 -8 57 -16 65 -18 8 -2 42 -12 75 -22 33 -10 65 -19
70 -20 6 -1 129 -36 274 -78 l263 -76 157 51 c86 28 163 53 171 56 8 4 18 7
23 8 4 2 8 3 10 5 1 1 9 3 17 5 16 3 201 63 450 145 255 84 404 132 420 135 8
2 40 13 70 23 30 11 177 59 325 107 149 48 277 89 285 92 8 3 20 7 25 8 6 2
37 12 70 23 33 11 202 66 375 122 173 56 324 105 335 110 11 4 101 34 200 65
257 82 577 185 595 192 8 4 17 7 20 8 4 1 99 30 130 40 3 1 12 4 20 8 8 3 123
40 255 82 132 43 265 86 295 97 30 11 62 21 70 23 8 2 38 11 65 20 28 10 55
19 60 20 6 1 17 5 25 8 15 5 150 50 160 52 3 1 12 4 20 7 8 3 35 12 60 20 l45
15 0 2733 0 2734 -60 19 c-33 10 -69 20 -80 22 -11 2 -40 10 -65 18 -25 8 -67
20 -95 27 -27 7 -54 16 -60 19 -5 3 -14 6 -20 7 -11 2 -91 24 -175 49 -74 21
-79 23 -120 34 -52 14 -490 140 -525 152 -39 12 -265 77 -335 95 -30 8 -75 22
-100 30 -25 9 -52 17 -60 19 -55 12 -284 76 -330 93 -8 3 -19 6 -25 7 -5 2
-30 8 -55 16 -25 7 -49 14 -55 15 -5 2 -32 10 -60 18 -38 11 -284 81 -350 100
-5 2 -17 5 -25 8 -18 7 -115 34 -185 53 -98 26 -270 76 -295 85 -14 5 -34 11
-45 13 -11 2 -27 7 -35 10 -8 3 -26 8 -40 12 -14 3 -40 11 -57 16 -18 5 -48
13 -65 18 -18 5 -184 53 -368 106 -184 53 -342 98 -350 100 -8 2 -62 18 -120
35 -95 29 -191 57 -260 76 -14 3 -70 20 -125 36 -55 16 -107 31 -115 33 -8 3
-49 14 -90 26 -41 11 -82 22 -90 24 -8 2 -82 -19 -165 -46z"/>
</g>
</svg>
